<svg xmlns="http://www.w3.org/2000/svg" width="53" height="53" version="1.0" viewBox="0 0 53.04 49.921">
  <path d="M53.04 25.601c0 5.439-1.84 10.64-5.2 15.039-3.04 4.08-7.36 7.281-12.24 9.041-.16.08-.88.24-2 .24H19.36c-1.2 0-1.84-.16-2-.24-4.8-1.76-9.12-4.961-12.24-9.041C1.76 36.241 0 31.04 0 25.601 0 16.48 4 9.76 7.6 5.52c.48-.56.64-1.36.16-1.84-.4-.4-.64-.96-.64-1.6C7.12.88 8.08 0 9.2 0h34.401c1.2 0 2.08.88 2.08 2.08 0 .64-.32 1.12-.64 1.52-.48.72-.16 1.44.319 2.08 3.519 4.08 7.68 10.88 7.68 19.921zM48 11.6c-1.12-2-2.4-3.68-3.681-5.2-.479-.64-.88-1.36-.8-2.16H9.278c.08.72-.24 1.44-.8 2.16-1.2 1.52-2.48 3.2-3.6 5.2zM8.318 2.08c0 .4.4.88.88.88h34.401c.4 0 .88-.4.88-.88s-.399-.88-.88-.88H9.198c-.48 0-.88.4-.88.88zM40.08 27.201c-.561-1.44-7.681-2.32-12.001-.721-4.32 1.68-5.6 4.4-6.8 5.36-1.12.88-1.92 1.04-3.68.4-3.44-1.2-5.68-1.601-4.96-.56 1.2 2 3.28 2.879 3.28 2.879-3.44 5.281-2.64 5.041.88 3.281 1.12-.48 2.24-1.521 3.76-2.08 1.6-.641 1.92 0 3.84.08 1.92.159 4.08.799 7.52-.561 3.12-1.118 8.8-6.238 8.161-8.078zm-6.241-.08c.8 0 1.52.72 1.52 1.52 0 .801-.72 1.521-1.52 1.521-.801 0-1.521-.72-1.521-1.521.001-.801.721-1.52 1.521-1.52z"/>
</svg>
