<svg xmlns="http://www.w3.org/2000/svg" width="53.04" height="49.921" version="1.0" viewBox="0 0 53.04 49.921">
  <path d="M53.04 25.601c0 5.439-1.84 10.64-5.2 15.039-3.04 4.08-7.36 7.281-12.24 9.041-.16.08-.88.24-2 .24H19.36c-1.2 0-1.84-.16-2-.24-4.8-1.76-9.12-4.961-12.24-9.041C1.76 36.241 0 31.04 0 25.601 0 16.48 4 9.76 7.6 5.52c.48-.56.64-1.36.16-1.84-.4-.4-.64-.96-.64-1.6C7.12.88 8.08 0 9.2 0h34.401c1.2 0 2.08.88 2.08 2.08 0 .64-.32 1.12-.64 1.52-.48.72-.16 1.44.319 2.08 3.519 4.08 7.68 10.88 7.68 19.921zM48 11.6c-1.12-2-2.4-3.68-3.681-5.2-.479-.64-.88-1.36-.8-2.16H9.278c.08.72-.24 1.44-.8 2.16-1.2 1.52-2.48 3.2-3.6 5.2zM8.318 2.08c0 .4.4.88.88.88h34.401c.4 0 .88-.4.88-.88s-.399-.88-.88-.88H9.198c-.48 0-.88.4-.88.88zM40.08 27.201c-.561-1.44-7.681-2.32-12.001-.721-4.32 1.68-5.6 4.4-6.8 5.36-1.12.88-1.92 1.04-3.68.4-3.44-1.2-5.68-1.601-4.96-.56 1.2 2 3.28 2.879 3.28 2.879-3.44 5.281-2.64 5.041.88 3.281 1.12-.48 2.24-1.521 3.76-2.08 1.6-.641 1.92 0 3.84.08 1.92.159 4.08.799 7.52-.561 3.12-1.118 8.8-6.238 8.161-8.078zm-6.241-.08c.8 0 1.52.72 1.52 1.52 0 .801-.72 1.521-1.52 1.521-.801 0-1.521-.72-1.521-1.521.001-.801.721-1.52 1.521-1.52z"/>
  <path fill="#999" d="M16.598 49.284c-7.296-3.031-13.134-9.24-15.383-16.36-.872-2.76-1.111-4.79-.996-8.447.146-4.645.845-7.526 2.85-11.75 1.123-2.367 2.289-4.252 3.766-6.09 1.48-1.841 1.583-2.274.788-3.31-.378-.493-.458-1.705-.15-2.28.51-.953-.042-.926 19.06-.926C44.07.121 44.315.126 44.789.5c.263.207.578.677.7 1.044.196.595.168.767-.268 1.606-.268.517-.487 1.137-.487 1.38 0 .245.413.963.932 1.62 4.267 5.407 6.503 10.658 7.131 16.754 1.141 11.068-5.431 21.794-16.058 26.206l-1.534.637-8.766-.008-8.765-.008zm-.877-10.836c.78-.34 2.047-1.01 2.815-1.49 2.02-1.258 2.83-1.511 4.1-1.28 5.45.998 8.421.558 11.909-1.762 2.804-1.866 5.686-5.104 5.692-6.394.002-.565-.707-1.067-2.096-1.482-1.673-.5-7.165-.506-8.951-.008-2.449.681-4.013 1.68-6.39 4.077-2.835 2.86-2.57 2.797-6.687 1.588-2.185-.641-3.38-.825-3.645-.56-.301.302.848 1.75 2.187 2.757.527.397.984.745 1.015.774.031.03-.264.55-.656 1.157-1.308 2.026-1.668 3.251-.952 3.245.132-.002.879-.281 1.659-.622zM48.103 11.62c0-.218-2.006-3.182-2.873-4.245-1.152-1.412-1.62-2.195-1.62-2.713v-.421H9.152v.456c0 .251-.377.988-.837 1.639-1.858 2.626-3.47 5.051-3.47 5.218 0 .11 8.149.178 21.629.178 11.895 0 21.628-.05 21.628-.112zM44.13 2.826c.233-.163.416-.489.416-.739 0-1.07.73-1.03-18.164-1.03-15.384 0-17.379.033-17.748.292-.517.362-.533.903-.042 1.394.369.369.624.374 17.748.374 15.422 0 17.42-.032 17.79-.291z"/>
  <path fill="#999" d="M33.19 29.864c-.41-.198-.817-.89-.817-1.39 0-.492.878-1.2 1.49-1.2 1.26 0 1.82 1.64.826 2.421-.54.425-.889.464-1.498.17z"/>
  <path fill="#e6e6e6" d="M18.242 49.877c-.546-.082-.865-.176-1.617-.477-4.565-1.827-8.677-4.993-11.672-8.987C1.448 35.738-.26 30.152.027 24.312c.123-2.51.454-4.595 1.076-6.793C2.302 13.288 4.328 9.5 7.404 5.736c.752-.92.828-1.478.288-2.128C6.581 2.268 7.166.38 8.796.042c.178-.037 5.88-.05 17.792-.04l17.53.014.307.127c.424.176.828.559 1.036.982.142.288.173.417.191.806.028.592-.057.863-.465 1.478-.333.501-.388.673-.352 1.107.035.418.285.858.933 1.64 3.809 4.6 6.2 9.86 6.98 15.35.225 1.59.264 2.183.263 4.046-.001 1.897-.05 2.542-.315 4.108-.76 4.503-2.917 8.897-6.205 12.645-.611.697-2.029 2.076-2.766 2.691a26.852 26.852 0 0 1-7.692 4.53c-1.05.403-.589.385-9.628.377-4.418-.004-8.091-.016-8.163-.026zm-3.428-11.124c.851-.324 2.525-1.18 3.506-1.794 1.205-.754 1.773-1.049 2.454-1.274.756-.251 1.043-.26 2.073-.069.474.089 1.028.176 1.23.193.2.018.907.092 1.57.166 1.51.167 3.035.155 3.955-.03 1.72-.346 3.159-.933 4.58-1.87 2.048-1.348 4.26-3.405 5.232-4.866.594-.893.83-1.659.63-2.045-.73-1.412-6.884-2.01-10.729-1.04-2.081.523-3.992 1.587-5.6 3.116-.227.216-.82.854-1.315 1.418-.956 1.085-1.359 1.436-1.978 1.726-.826.387-1.352.343-3.2-.265-2.152-.709-3.321-.998-4.087-1.013-.705-.013-.766.16-.299.856.582.865 1.7 1.854 2.724 2.41.18.098.327.195.327.216 0 .02-.15.269-.333.55-.581.897-1.238 2.013-1.507 2.562-.308.63-.391 1.081-.222 1.207.134.099.455.049.99-.154zm33.15-27.178c0-.064-.586-1.023-1.086-1.778a41.602 41.602 0 0 0-2.246-3.017c-.765-.925-1.06-1.507-1.105-2.173l-.025-.379H9.294l-.002.249c-.003.591-.267 1.199-.86 1.977C7.28 7.968 6.652 8.819 6.25 9.409c-.435.638-1.09 1.687-1.266 2.027l-.088.17H26.43c11.844 0 21.534-.014 21.534-.031zm-3.993-8.72c.423-.232.6-.764.391-1.174-.146-.285-.287-.365-.772-.434-.3-.042-5.112-.054-17.525-.043l-17.112.015-.183.108a.853.853 0 0 0-.14 1.375c.303.283-.833.267 17.853.255 16.382-.01 17.33-.016 17.488-.102z"/>
  <path fill="#e6e6e6" d="M33.469 30.115c-.501-.14-.971-.611-1.105-1.106-.077-.283-.03-.748.1-1.002.144-.28.455-.58.77-.743.92-.475 2.117.304 2.118 1.38.002.95-.986 1.722-1.883 1.47z"/>
  <path fill="#e6e6e6" d="M18.464 49.91c-.661-.056-.908-.122-1.818-.484-6.39-2.541-11.845-7.722-14.54-13.809-1.094-2.476-1.71-4.82-2.032-7.737-.1-.908-.082-3.99.03-5.075.253-2.476.674-4.457 1.417-6.672 1.23-3.667 3.092-6.998 5.707-10.204.616-.755.781-1.076.783-1.522.002-.337-.023-.388-.469-.964-.305-.395-.41-.733-.412-1.334-.001-.425.021-.58.118-.826.167-.424.602-.88 1.045-1.097l.347-.17h35.53l.35.166c.636.3 1.033.839 1.153 1.56.099.595-.033 1.04-.515 1.745-.585.855-.45 1.361.745 2.808 3.795 4.59 6.229 10.1 6.923 15.672.303 2.435.294 4.994-.026 7.17-.772 5.243-3.41 10.357-7.398 14.338a26.567 26.567 0 0 1-8.969 5.907c-.514.205-1.126.412-1.36.46-.384.078-1.2.088-8.276.097-4.317.006-8.067-.007-8.333-.03zm-3.588-11.204c.874-.341 2.533-1.194 3.444-1.77 2.175-1.376 3.044-1.634 4.5-1.34a17.59 17.59 0 0 0 1.492.216c.446.043 1.093.114 1.439.159 1.004.13 2.445.152 3.218.05 1.857-.244 3.583-.9 5.233-1.987 2.664-1.756 5.138-4.284 5.766-5.891.145-.372.156-.86.023-1.059-.42-.628-2.313-1.188-4.578-1.354-1.074-.08-3.534-.032-4.377.083-1.604.219-2.835.585-4.134 1.229-1.75.867-2.923 1.824-4.593 3.743-.894 1.028-1.414 1.456-2.071 1.704-.375.141-.986.185-1.451.104-.2-.034-.97-.261-1.712-.505-2.058-.673-3.253-.963-3.97-.963-.672 0-.715.138-.257.822.572.856 1.616 1.794 2.61 2.345.25.139.462.257.471.264.009.006-.134.243-.317.527-1.472 2.278-2.065 3.518-1.808 3.776.123.123.508.068 1.072-.153zm33.036-27.183c0-.062-.573-1.003-1.032-1.696A40.922 40.922 0 0 0 44.78 7c-.522-.625-.971-1.297-1.106-1.656-.127-.338-.23-.885-.188-.994.022-.059-2.78-.07-17.083-.07H9.293v.3c-.002.354-.174.88-.42 1.28-.093.153-.504.713-.913 1.245-1.316 1.714-2.477 3.413-2.93 4.289l-.082.159H26.43c11.815 0 21.482-.014 21.482-.031zm-4.014-8.674c.093-.039.243-.155.333-.258.287-.326.294-.706.02-1.038-.135-.164-.197-.194-.52-.247-.271-.045-4.803-.06-17.577-.06H8.943l-.177.118c-.415.28-.524.705-.286 1.112.146.249.308.373.53.406.084.012 7.93.026 17.436.03 14.41.007 17.311-.004 17.452-.063z"/>
  <path fill="#ececec" d="M33.47 30.137c-.7-.23-1.152-.819-1.152-1.498 0-.568.308-1.065.845-1.362.242-.134.334-.155.672-.154.322.001.441.026.658.14.54.282.867.8.867 1.376 0 .8-.643 1.478-1.445 1.523a1.658 1.658 0 0 1-.446-.025z"/>
  <path fill="none" d="M33.39 30.113a1.742 1.742 0 0 1-.98-.913c-.128-.291-.111-.929.033-1.205.146-.28.45-.584.735-.732.37-.194.936-.2 1.302-.012.746.38 1.083 1.248.768 1.98-.3.698-1.216 1.134-1.857.882z"/>
  <path fill="none" d="M18.464 49.91c-.66-.056-.907-.122-1.818-.483-2.591-1.027-5.158-2.573-7.46-4.492-.764-.637-2.457-2.31-3.094-3.057-4.02-4.716-6.108-10.285-6.112-16.3-.004-7.008 2.35-13.496 7.032-19.386 1.164-1.463 1.24-1.78.633-2.599-.414-.557-.514-.843-.516-1.484-.001-.425.021-.58.118-.826.167-.423.6-.878 1.043-1.096l.347-.171 17.74-.014L44.114-.01l.379.18c.656.311 1.04.812 1.173 1.527.11.589-.025 1.082-.476 1.747-.618.91-.503 1.324.835 2.996 3.484 4.357 5.65 8.965 6.563 13.958.343 1.879.425 2.871.424 5.155 0 2.131-.036 2.592-.32 4.238-.644 3.728-2.298 7.479-4.73 10.728-1.165 1.555-2.633 3.137-3.976 4.286-2.381 2.037-5.189 3.705-8.023 4.767-1.013.38-.448.357-9.167.368-4.317.006-8.067-.007-8.333-.03zm-3.912-11.097c.782-.241 2.653-1.18 3.84-1.927 1.05-.66 1.61-.95 2.335-1.208.675-.241 1.15-.26 2.093-.087.926.17 3.366.437 4.396.481 2.379.102 4.735-.579 6.933-2.003 1.224-.793 2.605-1.939 3.743-3.107 1.967-2.018 2.635-3.464 1.89-4.09-.483-.406-1.821-.827-3.278-1.03-1.14-.159-3.057-.204-4.526-.105-2.473.166-4.479.812-6.41 2.065-1.033.67-1.89 1.446-3.087 2.8-.851.96-1.184 1.282-1.622 1.565-.447.288-.844.428-1.314.461-.557.04-.953-.043-2.298-.482-2.068-.673-3.12-.947-3.87-1.004-.817-.063-.958.05-.68.547.513.913 1.709 2.017 2.902 2.68.173.096.32.179.329.185.008.006-.265.455-.607.999-1.277 2.028-1.754 3.068-1.517 3.306.093.092.352.077.748-.046zm33.327-27.3c.03-.048-.533-.983-1.108-1.84a44.682 44.682 0 0 0-2.053-2.75c-.852-1.052-1.104-1.517-1.212-2.23l-.053-.345-.552-.034c-.304-.018-7.99-.034-17.08-.034H9.294l-.002.301c0 .354-.173.88-.416 1.276-.092.15-.562.793-1.044 1.428-1.28 1.688-2.14 2.943-2.72 3.968l-.17.301h21.456c11.8 0 21.467-.018 21.48-.041zm-3.816-8.77c.247-.189.417-.55.372-.79a1.13 1.13 0 0 0-.15-.349c-.243-.36 1.292-.33-17.936-.347L8.947 1.242l-.21.153c-.397.287-.487.744-.223 1.129.184.27.293.315.832.348.273.017 8.152.029 17.508.026l17.01-.004z"/>
</svg>
