<?xml version="1.0" encoding="UTF-8" standalone="no"?>
<svg
   xmlns:dc="http://purl.org/dc/elements/1.1/"
   xmlns:cc="http://creativecommons.org/ns#"
   xmlns:rdf="http://www.w3.org/1999/02/22-rdf-syntax-ns#"
   xmlns:svg="http://www.w3.org/2000/svg"
   xmlns="http://www.w3.org/2000/svg"
   height="49.921001"
   width="53.040001"
   id="svg10"
   xml:space="preserve"
   enable-background="new 0 0 100 100"
   viewBox="0 0 53.040001 49.921001"
   y="0px"
   x="0px"
   version="1.0"><metadata
     id="metadata16"><rdf:RDF><cc:Work
         rdf:about=""><dc:format>image/svg+xml</dc:format><dc:type
           rdf:resource="http://purl.org/dc/dcmitype/StillImage" /><dc:title></dc:title></cc:Work></rdf:RDF></metadata><defs
     id="defs14" /><g
     transform="translate(-23.642,-26.848)"
     id="g4"><path
       id="path2"
       d="m 76.682,52.449 c 0,5.439 -1.84,10.64 -5.2,15.039 -3.04,4.08 -7.36,7.281 -12.24,9.041 -0.16,0.08 -0.88,0.24 -2,0.24 -2.96,0 -13.601,0 -14.24,0 -1.2,0 -1.84,-0.16 -2,-0.24 -4.8,-1.76 -9.12,-4.961 -12.24,-9.041 -3.36,-4.399 -5.12,-9.6 -5.12,-15.039 0,-9.121 4,-15.841 7.6,-20.081 0.48,-0.56 0.64,-1.36 0.16,-1.84 -0.4,-0.4 -0.64,-0.96 -0.64,-1.6 0,-1.2 0.96,-2.08 2.08,-2.08 h 34.401 c 1.2,0 2.08,0.88 2.08,2.08 0,0.64 -0.32,1.12 -0.64,1.52 -0.48,0.72 -0.16,1.44 0.319,2.08 3.519,4.08 7.68,10.88 7.68,19.921 z m -5.04,-14.001 c -1.12,-2 -2.4,-3.68 -3.681,-5.2 -0.479,-0.64 -0.88,-1.36 -0.8,-2.16 H 32.92 c 0.08,0.72 -0.24,1.44 -0.8,2.16 -1.2,1.52 -2.48,3.2 -3.6,5.2 z M 31.96,28.928 c 0,0.4 0.4,0.88 0.88,0.88 h 34.401 c 0.4,0 0.88,-0.4 0.88,-0.88 0,-0.48 -0.399,-0.88 -0.88,-0.88 H 32.84 c -0.48,0 -0.88,0.4 -0.88,0.88 z m 31.762,25.121 c -0.561,-1.44 -7.681,-2.32 -12.001,-0.721 -4.32,1.68 -5.6,4.4 -6.8,5.36 -1.12,0.88 -1.92,1.04 -3.68,0.4 -3.44,-1.2 -5.68,-1.601 -4.96,-0.56 1.2,2 3.28,2.879 3.28,2.879 -3.44,5.281 -2.64,5.041 0.88,3.281 1.12,-0.48 2.24,-1.521 3.76,-2.08 1.6,-0.641 1.92,0 3.84,0.08 1.92,0.159 4.08,0.799 7.52,-0.561 3.12,-1.118 8.8,-6.238 8.161,-8.078 z m -6.241,-0.08 c 0.8,0 1.52,0.72 1.52,1.52 0,0.801 -0.72,1.521 -1.52,1.521 -0.801,0 -1.521,-0.72 -1.521,-1.521 10e-4,-0.801 0.721,-1.52 1.521,-1.52 z" /></g><path
     id="path3707"
     d="M 16.597976,49.28351 C 9.302224,46.252678 3.4644451,40.04408 1.2150358,32.923439 0.34322657,30.163674 0.1038648,28.134182 0.21886847,24.477165 0.36494016,19.832215 1.0637124,16.951001 3.0686741,12.726699 4.1919756,10.359987 5.3579651,8.4748455 6.8354741,6.6366324 8.3151226,4.7957574 8.4180671,4.3628669 7.6227107,3.3262343 7.2448372,2.8337307 7.1651782,1.6220735 7.4728739,1.0471385 7.9827738,0.09438213 7.430846,0.12119398 26.533641,0.12119398 c 17.536482,0 17.780488,0.005046 18.253929,0.37745516 0.263922,0.20760033 0.578871,0.67747266 0.69989,1.04416066 0.196576,0.5956321 0.168076,0.766848 -0.267339,1.606093 -0.268055,0.516663 -0.487372,1.1375183 -0.487372,1.3796784 0,0.2451003 0.413289,0.9638465 0.932254,1.6212734 4.267417,5.4059794 6.502513,10.6568704 7.131005,16.7528054 1.141142,11.068292 -5.431341,21.794338 -16.05817,26.206336 l -1.534325,0.637012 -8.765165,-0.0079 -8.765167,-0.0079 z M 15.720781,38.448121 c 0.780089,-0.340611 2.046756,-1.010968 2.814815,-1.489679 2.019475,-1.258683 2.830806,-1.511894 4.100066,-1.279601 5.450149,0.99745 8.42131,0.557587 11.909032,-1.763065 2.804053,-1.86575 5.686414,-5.103466 5.691976,-6.393711 0.0024,-0.565459 -0.706203,-1.066694 -2.095448,-1.482157 -1.673231,-0.500392 -7.165608,-0.505525 -8.951339,-0.0084 -2.448717,0.681736 -4.013247,1.680129 -6.389667,4.077513 -2.835116,2.860127 -2.569322,2.796993 -6.686935,1.588354 -2.185771,-0.641587 -3.380266,-0.824901 -3.645678,-0.559491 -0.300824,0.300824 0.848688,1.749324 2.187267,2.756174 0.527127,0.396493 0.983877,0.744988 1.015001,0.774431 0.03112,0.02944 -0.263816,0.549697 -0.655422,1.15612 -1.308582,2.026406 -1.668087,3.251888 -0.951967,3.245064 0.131976,-0.0013 0.878211,-0.28097 1.658299,-0.621584 z m 32.38271,-26.828327 c 0,-0.218068 -2.006283,-3.1819147 -2.873543,-4.245037 C 44.078465,5.9632248 43.610728,5.1801155 43.609869,4.6623326 L 43.609168,4.2409899 H 26.380931 9.1526937 v 0.4561514 c 0,0.2508832 -0.3763973,0.9882331 -0.8364382,1.6385552 -1.8577892,2.6262034 -3.4706211,5.0513285 -3.4706211,5.2185795 0,0.11047 8.1488976,0.177252 21.6289286,0.177252 11.89591,0 21.628928,-0.05028 21.628928,-0.111734 z m -3.9742,-8.7938986 c 0.232394,-0.1627746 0.416195,-0.4888846 0.416195,-0.7384352 0,-1.0712975 0.729237,-1.029949 -18.164555,-1.029949 -15.383884,0 -17.3789499,0.032769 -17.7483604,0.2915138 -0.516636,0.3618659 -0.532804,0.9027205 -0.041667,1.3938573 0.3691444,0.3691443 0.6242114,0.3745269 17.7483594,0.3745269 15.421596,0 17.4206,-0.032756 17.790028,-0.2915138 z"
     style="fill:#999999;stroke-width:0.18726344" /><path
     id="path3709"
     d="m 33.190594,29.864324 c -0.410266,-0.198654 -0.817233,-0.890868 -0.817233,-1.390041 0,-0.492634 0.878018,-1.199889 1.489596,-1.199889 1.260356,0 1.819622,1.639205 0.825943,2.420833 -0.540139,0.424874 -0.888802,0.464224 -1.498306,0.169097 z"
     style="fill:#999999;stroke-width:0.18726344" /></svg>