<?xml version="1.0" encoding="UTF-8" standalone="no"?>
<svg
   xmlns:dc="http://purl.org/dc/elements/1.1/"
   xmlns:cc="http://creativecommons.org/ns#"
   xmlns:rdf="http://www.w3.org/1999/02/22-rdf-syntax-ns#"
   xmlns:svg="http://www.w3.org/2000/svg"
   xmlns="http://www.w3.org/2000/svg"
   height="49.921001"
   width="53.040001"
   id="svg10"
   xml:space="preserve"
   enable-background="new 0 0 100 100"
   viewBox="0 0 53.040001 49.921001"
   y="0px"
   x="0px"
   version="1.0"><metadata
     id="metadata16"><rdf:RDF><cc:Work
         rdf:about=""><dc:format>image/svg+xml</dc:format><dc:type
           rdf:resource="http://purl.org/dc/dcmitype/StillImage" /><dc:title></dc:title></cc:Work></rdf:RDF></metadata><defs
     id="defs14" /><g
     transform="translate(-23.642,-26.848)"
     id="g4"><path
       id="path2"
       d="m 76.682,52.449 c 0,5.439 -1.84,10.64 -5.2,15.039 -3.04,4.08 -7.36,7.281 -12.24,9.041 -0.16,0.08 -0.88,0.24 -2,0.24 -2.96,0 -13.601,0 -14.24,0 -1.2,0 -1.84,-0.16 -2,-0.24 -4.8,-1.76 -9.12,-4.961 -12.24,-9.041 -3.36,-4.399 -5.12,-9.6 -5.12,-15.039 0,-9.121 4,-15.841 7.6,-20.081 0.48,-0.56 0.64,-1.36 0.16,-1.84 -0.4,-0.4 -0.64,-0.96 -0.64,-1.6 0,-1.2 0.96,-2.08 2.08,-2.08 h 34.401 c 1.2,0 2.08,0.88 2.08,2.08 0,0.64 -0.32,1.12 -0.64,1.52 -0.48,0.72 -0.16,1.44 0.319,2.08 3.519,4.08 7.68,10.88 7.68,19.921 z m -5.04,-14.001 c -1.12,-2 -2.4,-3.68 -3.681,-5.2 -0.479,-0.64 -0.88,-1.36 -0.8,-2.16 H 32.92 c 0.08,0.72 -0.24,1.44 -0.8,2.16 -1.2,1.52 -2.48,3.2 -3.6,5.2 z M 31.96,28.928 c 0,0.4 0.4,0.88 0.88,0.88 h 34.401 c 0.4,0 0.88,-0.4 0.88,-0.88 0,-0.48 -0.399,-0.88 -0.88,-0.88 H 32.84 c -0.48,0 -0.88,0.4 -0.88,0.88 z m 31.762,25.121 c -0.561,-1.44 -7.681,-2.32 -12.001,-0.721 -4.32,1.68 -5.6,4.4 -6.8,5.36 -1.12,0.88 -1.92,1.04 -3.68,0.4 -3.44,-1.2 -5.68,-1.601 -4.96,-0.56 1.2,2 3.28,2.879 3.28,2.879 -3.44,5.281 -2.64,5.041 0.88,3.281 1.12,-0.48 2.24,-1.521 3.76,-2.08 1.6,-0.641 1.92,0 3.84,0.08 1.92,0.159 4.08,0.799 7.52,-0.561 3.12,-1.118 8.8,-6.238 8.161,-8.078 z m -6.241,-0.08 c 0.8,0 1.52,0.72 1.52,1.52 0,0.801 -0.72,1.521 -1.52,1.521 -0.801,0 -1.521,-0.72 -1.521,-1.521 10e-4,-0.801 0.721,-1.52 1.521,-1.52 z" /></g></svg>