<?xml version="1.0" encoding="UTF-8" standalone="no"?>
<svg
   xmlns:dc="http://purl.org/dc/elements/1.1/"
   xmlns:cc="http://creativecommons.org/ns#"
   xmlns:rdf="http://www.w3.org/1999/02/22-rdf-syntax-ns#"
   xmlns:svg="http://www.w3.org/2000/svg"
   xmlns="http://www.w3.org/2000/svg"
   version="1.0"
   x="0px"
   y="0px"
   viewBox="0 0 53.040001 49.921001"
   enable-background="new 0 0 100 100"
   xml:space="preserve"
   id="svg10"
   width="53.040001"
   height="49.921001"><metadata
     id="metadata16"><rdf:RDF><cc:Work
         rdf:about=""><dc:format>image/svg+xml</dc:format><dc:type
           rdf:resource="http://purl.org/dc/dcmitype/StillImage" /><dc:title></dc:title></cc:Work></rdf:RDF></metadata><defs
     id="defs14" /><g
     transform="translate(-23.642,-26.848)"
     id="g4"><path
       id="path2"
       d="m 76.682,52.449 c 0,5.439 -1.84,10.64 -5.2,15.039 -3.04,4.08 -7.36,7.281 -12.24,9.041 -0.16,0.08 -0.88,0.24 -2,0.24 -2.96,0 -13.601,0 -14.24,0 -1.2,0 -1.84,-0.16 -2,-0.24 -4.8,-1.76 -9.12,-4.961 -12.24,-9.041 -3.36,-4.399 -5.12,-9.6 -5.12,-15.039 0,-9.121 4,-15.841 7.6,-20.081 0.48,-0.56 0.64,-1.36 0.16,-1.84 -0.4,-0.4 -0.64,-0.96 -0.64,-1.6 0,-1.2 0.96,-2.08 2.08,-2.08 h 34.401 c 1.2,0 2.08,0.88 2.08,2.08 0,0.64 -0.32,1.12 -0.64,1.52 -0.48,0.72 -0.16,1.44 0.319,2.08 3.519,4.08 7.68,10.88 7.68,19.921 z m -5.04,-14.001 c -1.12,-2 -2.4,-3.68 -3.681,-5.2 -0.479,-0.64 -0.88,-1.36 -0.8,-2.16 H 32.92 c 0.08,0.72 -0.24,1.44 -0.8,2.16 -1.2,1.52 -2.48,3.2 -3.6,5.2 z M 31.96,28.928 c 0,0.4 0.4,0.88 0.88,0.88 h 34.401 c 0.4,0 0.88,-0.4 0.88,-0.88 0,-0.48 -0.399,-0.88 -0.88,-0.88 H 32.84 c -0.48,0 -0.88,0.4 -0.88,0.88 z m 31.762,25.121 c -0.561,-1.44 -7.681,-2.32 -12.001,-0.721 -4.32,1.68 -5.6,4.4 -6.8,5.36 -1.12,0.88 -1.92,1.04 -3.68,0.4 -3.44,-1.2 -5.68,-1.601 -4.96,-0.56 1.2,2 3.28,2.879 3.28,2.879 -3.44,5.281 -2.64,5.041 0.88,3.281 1.12,-0.48 2.24,-1.521 3.76,-2.08 1.6,-0.641 1.92,0 3.84,0.08 1.92,0.159 4.08,0.799 7.52,-0.561 3.12,-1.118 8.8,-6.238 8.161,-8.078 z m -6.241,-0.08 c 0.8,0 1.52,0.72 1.52,1.52 0,0.801 -0.72,1.521 -1.52,1.521 -0.801,0 -1.521,-0.72 -1.521,-1.521 10e-4,-0.801 0.721,-1.52 1.521,-1.52 z" /></g><path
     id="path3707"
     d="M 16.597976,49.28351 C 9.302224,46.252678 3.4644451,40.04408 1.2150358,32.923439 0.34322657,30.163674 0.1038648,28.134182 0.21886847,24.477165 0.36494016,19.832215 1.0637124,16.951001 3.0686741,12.726699 4.1919756,10.359987 5.3579651,8.4748455 6.8354741,6.6366324 8.3151226,4.7957574 8.4180671,4.3628669 7.6227107,3.3262343 7.2448372,2.8337307 7.1651782,1.6220735 7.4728739,1.0471385 7.9827738,0.09438213 7.430846,0.12119398 26.533641,0.12119398 c 17.536482,0 17.780488,0.005046 18.253929,0.37745516 0.263922,0.20760033 0.578871,0.67747266 0.69989,1.04416066 0.196576,0.5956321 0.168076,0.766848 -0.267339,1.606093 -0.268055,0.516663 -0.487372,1.1375183 -0.487372,1.3796784 0,0.2451003 0.413289,0.9638465 0.932254,1.6212734 4.267417,5.4059794 6.502513,10.6568704 7.131005,16.7528054 1.141142,11.068292 -5.431341,21.794338 -16.05817,26.206336 l -1.534325,0.637012 -8.765165,-0.0079 -8.765167,-0.0079 z M 15.720781,38.448121 c 0.780089,-0.340611 2.046756,-1.010968 2.814815,-1.489679 2.019475,-1.258683 2.830806,-1.511894 4.100066,-1.279601 5.450149,0.99745 8.42131,0.557587 11.909032,-1.763065 2.804053,-1.86575 5.686414,-5.103466 5.691976,-6.393711 0.0024,-0.565459 -0.706203,-1.066694 -2.095448,-1.482157 -1.673231,-0.500392 -7.165608,-0.505525 -8.951339,-0.0084 -2.448717,0.681736 -4.013247,1.680129 -6.389667,4.077513 -2.835116,2.860127 -2.569322,2.796993 -6.686935,1.588354 -2.185771,-0.641587 -3.380266,-0.824901 -3.645678,-0.559491 -0.300824,0.300824 0.848688,1.749324 2.187267,2.756174 0.527127,0.396493 0.983877,0.744988 1.015001,0.774431 0.03112,0.02944 -0.263816,0.549697 -0.655422,1.15612 -1.308582,2.026406 -1.668087,3.251888 -0.951967,3.245064 0.131976,-0.0013 0.878211,-0.28097 1.658299,-0.621584 z m 32.38271,-26.828327 c 0,-0.218068 -2.006283,-3.1819147 -2.873543,-4.245037 C 44.078465,5.9632248 43.610728,5.1801155 43.609869,4.6623326 L 43.609168,4.2409899 H 26.380931 9.1526937 v 0.4561514 c 0,0.2508832 -0.3763973,0.9882331 -0.8364382,1.6385552 -1.8577892,2.6262034 -3.4706211,5.0513285 -3.4706211,5.2185795 0,0.11047 8.1488976,0.177252 21.6289286,0.177252 11.89591,0 21.628928,-0.05028 21.628928,-0.111734 z m -3.9742,-8.7938986 c 0.232394,-0.1627746 0.416195,-0.4888846 0.416195,-0.7384352 0,-1.0712975 0.729237,-1.029949 -18.164555,-1.029949 -15.383884,0 -17.3789499,0.032769 -17.7483604,0.2915138 -0.516636,0.3618659 -0.532804,0.9027205 -0.041667,1.3938573 0.3691444,0.3691443 0.6242114,0.3745269 17.7483594,0.3745269 15.421596,0 17.4206,-0.032756 17.790028,-0.2915138 z"
     style="fill:#999999;stroke-width:0.18726344" /><path
     id="path3709"
     d="m 33.190594,29.864324 c -0.410266,-0.198654 -0.817233,-0.890868 -0.817233,-1.390041 0,-0.492634 0.878018,-1.199889 1.489596,-1.199889 1.260356,0 1.819622,1.639205 0.825943,2.420833 -0.540139,0.424874 -0.888802,0.464224 -1.498306,0.169097 z"
     style="fill:#999999;stroke-width:0.18726344" /><path
     style="fill:#e6e6e6;fill-opacity:1;stroke-width:0.05232809"
     d="m 18.241696,49.876636 c -0.545572,-0.08194 -0.864713,-0.176083 -1.6163,-0.476792 C 12.060078,47.573262 7.9479468,44.407216 4.9530654,40.412987 1.4479412,35.738254 -0.26132428,30.151868 0.02663634,24.311956 0.15041802,21.801633 0.48079565,19.717179 1.1032217,17.519446 2.3016894,13.287761 4.3280986,9.4980969 7.4039816,5.7361596 8.1559468,4.8164731 8.2315086,4.2584994 7.6921634,3.608117 6.5808806,2.2680489 7.1658318,0.37921215 8.7964751,0.04223806 8.9742582,0.005499 14.676557,-0.00741866 26.588027,0.00193411 l 17.529911,0.01376432 0.307302,0.12745536 c 0.423916,0.17582183 0.827659,0.55845266 1.036159,0.98197731 0.141714,0.2878619 0.172137,0.4163988 0.190763,0.8059808 0.0283,0.5918468 -0.0571,0.8631077 -0.465265,1.4778289 -0.333018,0.5015508 -0.38758,0.6733614 -0.351606,1.107167 0.03469,0.4183628 0.284762,0.8583454 0.93224,1.6402296 3.809154,4.5998806 6.201024,9.8599136 6.980231,15.3504416 0.225466,1.588704 0.2641,2.182534 0.263148,4.045029 -9.42e-4,1.896761 -0.05044,2.542548 -0.314691,4.107756 -0.760222,4.502938 -2.916914,8.897908 -6.205566,12.645887 -0.610976,0.696311 -2.028617,2.075521 -2.765837,2.690857 -2.351116,1.962407 -4.869598,3.445456 -7.691568,4.529305 -1.049863,0.403226 -0.589072,0.38516 -9.628369,0.377488 -4.4178,-0.0038 -8.091232,-0.01566 -8.163183,-0.02647 z m -3.42749,-11.123917 c 0.850894,-0.323812 2.524669,-1.180299 3.505982,-1.794046 1.20433,-0.753229 1.772441,-1.048236 2.453589,-1.274091 0.75611,-0.250712 1.042948,-0.260146 2.072791,-0.06817 0.474878,0.08852 1.028247,0.175366 1.22971,0.192986 0.201464,0.01762 0.907893,0.09194 1.569843,0.165145 1.511721,0.167189 3.035635,0.155849 3.956339,-0.02944 1.718943,-0.345934 3.15806,-0.933403 4.579197,-1.869294 2.048385,-1.348967 4.259422,-3.405731 5.232198,-4.867126 0.594163,-0.892608 0.830464,-1.658689 0.630754,-2.044886 -0.730208,-1.412064 -6.885072,-2.009039 -10.729557,-1.040684 -2.081313,0.524245 -3.991725,1.587635 -5.599912,3.117073 -0.227407,0.21627 -0.819343,0.854099 -1.315415,1.417395 -0.955905,1.085444 -1.358373,1.436836 -1.977549,1.726583 -0.826472,0.386753 -1.352653,0.343103 -3.200878,-0.265528 -2.151159,-0.708389 -3.320377,-0.998002 -4.08642,-1.012197 -0.705153,-0.01307 -0.765665,0.160395 -0.298465,0.855567 0.581452,0.86517 1.698747,1.854122 2.723468,2.410621 0.179878,0.09769 0.327051,0.194651 0.327051,0.215476 0,0.02082 -0.149639,0.268526 -0.332532,0.550448 -0.581673,0.896629 -1.238478,2.012918 -1.506983,2.56123 -0.308597,0.630185 -0.391764,1.081292 -0.222493,1.206826 0.133909,0.09931 0.455352,0.04931 0.989282,-0.153882 z M 47.964053,11.57502 c 0,-0.06438 -0.585633,-1.023114 -1.086018,-1.7779036 C 46.30396,8.9311707 45.342249,7.6395364 44.631764,6.7802427 43.867059,5.8553719 43.57118,5.2732684 43.527368,4.6074887 L 43.502402,4.22811 H 26.397997 9.293592 L 9.29231,4.4766684 C 9.2892645,5.0679729 9.0250447,5.6756537 8.4325688,6.4539754 7.2801718,7.967856 6.6508762,8.8194816 6.2493041,9.4085913 5.8142259,10.046855 5.1594251,11.095604 4.9832735,11.436305 l -0.087929,0.170066 H 26.429699 c 11.843895,0 21.534354,-0.01411 21.534354,-0.03135 z M 43.971331,2.8545525 C 44.394131,2.6233506 44.571382,2.091284 44.3622,1.6812542 44.216443,1.3955462 44.074727,1.3159411 43.58957,1.2472498 43.289571,1.2047742 38.478076,1.1928921 26.064746,1.2039717 L 8.9534594,1.2192446 8.770489,1.3267299 C 8.2667897,1.6226263 8.1975325,2.2984532 8.6295574,2.7019739 8.9326407,2.9850602 7.7966297,2.968832 26.483371,2.9570201 42.864599,2.9466654 43.813047,2.9411082 43.971331,2.8545525 Z"
     id="path68" /><path
     style="fill:#e6e6e6;fill-opacity:1;stroke-width:0.05232809"
     d="m 33.468933,30.114699 c -0.501177,-0.140622 -0.971176,-0.611045 -1.105143,-1.10614 -0.07645,-0.282547 -0.02995,-0.747154 0.100215,-1.001119 0.143636,-0.280257 0.455191,-0.581149 0.76969,-0.743345 0.920806,-0.474886 2.117051,0.304135 2.118776,1.379795 0.0015,0.950497 -0.986952,1.722375 -1.883538,1.470809 z"
     id="path70" /><path
     style="fill:#e6e6e6;fill-opacity:1;stroke-width:0.05232809;stroke:#b1b1b3;stroke-opacity:0"
     d="M 18.463903,49.909361 C 17.802831,49.853654 17.555592,49.787936 16.645689,49.426074 10.255259,46.884639 4.800743,41.704088 2.1066006,35.617241 1.0107573,33.141414 0.39455643,30.79661 0.07340641,27.880408 -0.02658655,26.972423 -0.00914972,23.889166 0.10211186,22.804583 0.35604662,20.329216 0.77714456,18.34764 1.5199201,16.132751 2.7497191,12.465603 4.6123778,9.1352701 7.2270169,5.928773 7.8428076,5.1735897 8.0080148,4.8526249 8.0100796,4.4074368 8.0116437,4.0701989 7.9868658,4.0192533 7.5411058,3.4431886 7.2356584,3.0484523 7.1311644,2.7099776 7.1291602,2.1088222 7.1277474,1.6843979 7.1499826,1.5283568 7.2468707,1.2828452 7.4142882,0.8586138 7.8486715,0.40260006 8.2919407,0.18573427 L 8.6394908,0.01569843 H 26.404879 44.170266 l 0.350636,0.16611009 c 0.63557,0.30109507 1.032519,0.83875488 1.152121,1.56052378 0.09855,0.5947623 -0.03275,1.0396808 -0.514786,1.7442781 -0.585322,0.8555781 -0.45111,1.3615861 0.744909,2.8084593 3.794707,4.5906153 6.228775,10.1008663 6.922977,15.6722643 0.303352,2.434586 0.293932,4.993454 -0.0264,7.168949 -0.772161,5.244096 -3.41049,10.357481 -7.398028,14.338233 -2.577543,2.573156 -5.590666,4.557783 -8.96874,5.907359 -0.514063,0.205374 -1.126301,0.412436 -1.360531,0.460138 -0.383881,0.07818 -1.19979,0.08779 -8.275086,0.09744 -4.317067,0.0059 -8.067114,-0.0077 -8.333436,-0.03009 z m -3.587965,-11.20314 c 0.873995,-0.341715 2.532786,-1.194665 3.44425,-1.771032 2.174428,-1.375005 3.04396,-1.63367 4.500216,-1.338705 0.374146,0.07578 1.045254,0.172747 1.491351,0.215477 0.446097,0.04273 1.093657,0.114131 1.439022,0.158671 1.004413,0.129535 2.445446,0.152245 3.218178,0.05072 1.856779,-0.243954 3.582802,-0.899459 5.23281,-1.987304 2.663908,-1.756307 5.138189,-4.284469 5.765958,-5.891519 0.145088,-0.371418 0.155832,-0.860012 0.02327,-1.058189 -0.420363,-0.628422 -2.313119,-1.188466 -4.578467,-1.354713 -1.073131,-0.07875 -3.534025,-0.03206 -4.376609,0.08305 -1.603663,0.219079 -2.835361,0.585268 -4.133919,1.229033 -1.749293,0.867219 -2.923396,1.824105 -4.592564,3.742908 -0.894561,1.028348 -1.414775,1.456243 -2.071638,1.703998 -0.374892,0.141401 -0.985474,0.185414 -1.451059,0.104596 -0.19904,-0.03455 -0.96941,-0.261688 -1.711934,-0.504752 -2.057339,-0.673463 -3.253152,-0.96371 -3.970479,-0.96371 -0.671208,0 -0.714321,0.138276 -0.256513,0.822707 0.572046,0.855218 1.616543,1.793418 2.609754,2.344162 0.250543,0.138929 0.462736,0.257682 0.47154,0.263895 0.0088,0.0062 -0.13399,0.243496 -0.31732,0.527293 -1.471689,2.27819 -2.065284,3.51826 -1.807509,3.776035 0.122701,0.122702 0.507723,0.06787 1.071664,-0.152621 z M 47.911725,11.522692 c 0,-0.0618 -0.57292,-1.00318 -1.032194,-1.6960301 C 46.360104,9.0430675 45.350731,7.6848008 44.780058,7.0014989 44.257698,6.3760453 43.808945,5.7038909 43.674161,5.3450558 43.547365,5.0074918 43.443793,4.4604762 43.485899,4.3507511 43.508454,4.2919741 40.705752,4.2804381 26.403237,4.2804381 H 9.293592 l -0.0011,0.3008865 C 9.2911901,4.9352123 9.1191207,5.4611608 8.8737543,5.8612311 8.7803659,6.0135011 8.3693219,6.5737168 7.9603229,7.1061551 6.6439093,8.8198735 5.4828713,10.519082 5.0301737,11.394503 l -0.082501,0.15954 H 26.429699 c 11.815114,0 21.482026,-0.01411 21.482026,-0.03135 z M 43.898042,2.8492101 c 0.09306,-0.038884 0.24311,-0.1548728 0.33344,-0.2577536 0.286369,-0.3261558 0.293696,-0.7063548 0.02001,-1.038383 C 44.116033,1.3887381 44.053703,1.3591149 43.731387,1.3058856 43.459594,1.2609999 38.928052,1.2454086 26.153979,1.2454086 H 8.9427724 L 8.7662127,1.3643921 c -0.4153741,0.2799206 -0.5245373,0.7045 -0.2858506,1.1117879 0.1455538,0.248369 0.3077641,0.3724264 0.5301276,0.4054388 0.083755,0.012434 7.9296473,0.026136 17.4353163,0.030448 14.410675,0.00654 17.311154,-0.00391 17.452236,-0.062857 z"
     id="path101" /><path
     style="fill:#ececec;fill-opacity:1;stroke-width:0.05232809;stroke:#b1b1b3;stroke-opacity:0"
     d="m 33.469171,30.137049 c -0.699003,-0.230164 -1.151218,-0.818554 -1.151218,-1.497883 0,-0.568521 0.307799,-1.064854 0.844816,-1.362286 0.241785,-0.133915 0.334091,-0.155033 0.672699,-0.153903 0.321206,0.0011 0.440567,0.02646 0.657422,0.13983 0.540558,0.282598 0.866634,0.800461 0.866634,1.376359 0,0.799879 -0.642959,1.477825 -1.444544,1.523149 -0.173244,0.0098 -0.373858,-0.0016 -0.445809,-0.02527 z"
     id="path103" /><path
     style="fill:#b1b1b3;fill-opacity:0;stroke-width:0.05232809"
     d="m 33.390679,30.113332 c -0.452204,-0.177301 -0.796319,-0.4981 -0.980194,-0.91378 -0.128673,-0.290885 -0.111516,-0.928443 0.03241,-1.204531 0.145931,-0.279928 0.450757,-0.583538 0.735148,-0.732214 0.370559,-0.193725 0.935917,-0.199051 1.301935,-0.01227 0.746088,0.380742 1.082628,1.248231 0.76799,1.979627 -0.300713,0.699025 -1.2164,1.134445 -1.857292,0.883164 z"
     id="path105" /><path
     style="fill:#b1b1b3;fill-opacity:0;stroke-width:0.05232809"
     d="M 18.463903,49.909361 C 17.80376,49.853732 17.556516,49.788147 16.645689,49.427054 14.054898,48.399947 11.487621,46.854141 9.1860326,44.935455 8.4216997,44.29828 6.7285452,42.625416 6.0916679,41.878173 2.0718263,37.161729 -0.01603557,31.593048 -0.01975597,25.577972 -0.02409044,18.570081 2.329336,12.081928 7.0120023,6.192144 8.1756536,4.728521 8.252939,4.4112002 7.644975,3.5932625 7.2307557,3.0359831 7.1312973,2.7497557 7.1291602,2.1088222 7.1277474,1.6843979 7.1499826,1.5283568 7.2468707,1.2828452 7.4137455,0.85998888 7.8468793,0.40481693 8.2899512,0.18669118 L 8.6372836,0.01569843 26.376123,0.00231269 44.114962,-0.01107304 44.493539,0.16871245 c 0.65651,0.3117751 1.040928,0.81185925 1.173832,1.52702215 0.109496,0.5892062 -0.0249,1.0821446 -0.476267,1.746807 -0.61801,0.9100596 -0.502638,1.3241974 0.83481,2.9966208 3.484048,4.3566586 5.650691,8.9646346 6.563121,13.9583286 0.343152,1.878048 0.424794,2.870764 0.4239,5.154317 -8.38e-4,2.131183 -0.03561,2.591806 -0.319976,4.238576 -0.643712,3.727799 -2.297794,7.478562 -4.730709,10.727259 -1.164429,1.554873 -2.631988,3.137311 -3.975132,4.286298 -2.381456,2.037208 -5.189115,3.70538 -8.02339,4.767101 -1.012313,0.379213 -0.448069,0.356535 -9.166389,0.368421 -4.317067,0.0059 -8.067114,-0.0077 -8.333436,-0.0301 z M 14.552037,38.813338 c 0.782017,-0.24154 2.652866,-1.18032 3.840844,-1.927311 1.049313,-0.659799 1.609912,-0.949999 2.334399,-1.208426 0.674925,-0.240747 1.1494,-0.260431 2.093124,-0.08683 0.925319,0.170212 3.365999,0.437631 4.39556,0.481609 2.378585,0.101604 4.734626,-0.579213 6.933473,-2.003541 1.223922,-0.792809 2.604477,-1.93876 3.742791,-3.10676 1.966806,-2.0181 2.634411,-3.463897 1.889019,-4.090951 -0.481998,-0.405477 -1.820318,-0.825696 -3.277046,-1.028961 -1.140439,-0.159131 -3.057688,-0.203739 -4.52638,-0.105313 -2.472427,0.165691 -4.478565,0.811915 -6.410192,2.06487 -1.032797,0.669927 -1.888693,1.44615 -3.087121,2.799749 -0.850515,0.96064 -1.18358,1.282113 -1.621776,1.565333 -0.446427,0.28854 -0.843879,0.428133 -1.31324,0.461237 -0.557973,0.03935 -0.953516,-0.04353 -2.29803,-0.481562 -2.068199,-0.673797 -3.120705,-0.947 -3.871268,-1.004879 -0.816219,-0.06294 -0.957172,0.05079 -0.678361,0.547345 0.512561,0.91286 1.708209,2.017251 2.901294,2.679858 0.172683,0.0959 0.320686,0.179203 0.328896,0.18511 0.0082,0.0059 -0.265019,0.455354 -0.607177,0.998769 -1.276887,2.027957 -1.754208,3.068527 -1.516572,3.306162 0.09253,0.09253 0.35198,0.07674 0.747763,-0.0455 z M 47.878605,11.512971 c 0.02966,-0.04799 -0.53296,-0.982776 -1.107506,-1.8401297 C 46.292242,8.9582766 45.41978,7.7897772 44.717932,6.9230068 43.866378,5.8713539 43.613522,5.4063199 43.505728,4.6936155 l -0.05227,-0.34558 -0.552397,-0.033799 C 42.597245,4.2956475 34.911275,4.2804381 25.821129,4.2804381 H 9.293592 l -0.0011,0.3008865 C 9.2911901,4.9345261 9.118958,5.4618259 8.8758113,5.8569888 8.7835548,6.006925 8.3136919,6.6495575 7.8316722,7.2850612 6.5513079,8.9731158 5.6913731,10.228052 5.1125684,11.253157 L 4.9426789,11.554043 H 26.397949 c 11.800399,0 21.466694,-0.01848 21.480655,-0.04107 z M 44.062827,2.7424352 C 44.309644,2.5541718 44.480424,2.1920525 44.435452,1.9523282 44.41771,1.8577596 44.349925,1.7012238 44.284818,1.6044711 44.041818,1.2433619 45.576931,1.2731079 26.349466,1.2569356 L 8.9472915,1.2422984 8.7368289,1.3947565 C 8.3404755,1.6818737 8.2500798,2.1393339 8.5136805,2.524034 c 0.1844659,0.2692104 0.2934842,0.3148088 0.8322396,0.3480963 0.2734143,0.016893 8.1519369,0.028667 17.5078289,0.026164 l 17.010711,-0.00455 z"
     id="path107" /></svg>