<svg xmlns="http://www.w3.org/2000/svg" width="53.04" height="49.921" version="1.0" viewBox="0 0 53.04 49.921">
  <path d="M53.04 25.601c0 5.439-1.84 10.64-5.2 15.039-3.04 4.08-7.36 7.281-12.24 9.041-.16.08-.88.24-2 .24H19.36c-1.2 0-1.84-.16-2-.24-4.8-1.76-9.12-4.961-12.24-9.041C1.76 36.241 0 31.04 0 25.601 0 16.48 4 9.76 7.6 5.52c.48-.56.64-1.36.16-1.84-.4-.4-.64-.96-.64-1.6C7.12.88 8.08 0 9.2 0h34.401c1.2 0 2.08.88 2.08 2.08 0 .64-.32 1.12-.64 1.52-.48.72-.16 1.44.319 2.08 3.519 4.08 7.68 10.88 7.68 19.921zM48 11.6c-1.12-2-2.4-3.68-3.681-5.2-.479-.64-.88-1.36-.8-2.16H9.278c.08.72-.24 1.44-.8 2.16-1.2 1.52-2.48 3.2-3.6 5.2zM8.318 2.08c0 .4.4.88.88.88h34.401c.4 0 .88-.4.88-.88s-.399-.88-.88-.88H9.198c-.48 0-.88.4-.88.88zM40.08 27.201c-.561-1.44-7.681-2.32-12.001-.721-4.32 1.68-5.6 4.4-6.8 5.36-1.12.88-1.92 1.04-3.68.4-3.44-1.2-5.68-1.601-4.96-.56 1.2 2 3.28 2.879 3.28 2.879-3.44 5.281-2.64 5.041.88 3.281 1.12-.48 2.24-1.521 3.76-2.08 1.6-.641 1.92 0 3.84.08 1.92.159 4.08.799 7.52-.561 3.12-1.118 8.8-6.238 8.161-8.078zm-6.241-.08c.8 0 1.52.72 1.52 1.52 0 .801-.72 1.521-1.52 1.521-.801 0-1.521-.72-1.521-1.521.001-.801.721-1.52 1.521-1.52z"/>
  <path fill="#999" d="M16.598 49.284c-7.296-3.031-13.134-9.24-15.383-16.36-.872-2.76-1.111-4.79-.996-8.447.146-4.645.845-7.526 2.85-11.75 1.123-2.367 2.289-4.252 3.766-6.09 1.48-1.841 1.583-2.274.788-3.31-.378-.493-.458-1.705-.15-2.28.51-.953-.042-.926 19.06-.926C44.07.121 44.315.126 44.789.5c.263.207.578.677.7 1.044.196.595.168.767-.268 1.606-.268.517-.487 1.137-.487 1.38 0 .245.413.963.932 1.62 4.267 5.407 6.503 10.658 7.131 16.754 1.141 11.068-5.431 21.794-16.058 26.206l-1.534.637-8.766-.008-8.765-.008zm-.877-10.836c.78-.34 2.047-1.01 2.815-1.49 2.02-1.258 2.83-1.511 4.1-1.28 5.45.998 8.421.558 11.909-1.762 2.804-1.866 5.686-5.104 5.692-6.394.002-.565-.707-1.067-2.096-1.482-1.673-.5-7.165-.506-8.951-.008-2.449.681-4.013 1.68-6.39 4.077-2.835 2.86-2.57 2.797-6.687 1.588-2.185-.641-3.38-.825-3.645-.56-.301.302.848 1.75 2.187 2.757.527.397.984.745 1.015.774.031.03-.264.55-.656 1.157-1.308 2.026-1.668 3.251-.952 3.245.132-.002.879-.281 1.659-.622zM48.103 11.62c0-.218-2.006-3.182-2.873-4.245-1.152-1.412-1.62-2.195-1.62-2.713v-.421H9.152v.456c0 .251-.377.988-.837 1.639-1.858 2.626-3.47 5.051-3.47 5.218 0 .11 8.149.178 21.629.178 11.895 0 21.628-.05 21.628-.112zM44.13 2.826c.233-.163.416-.489.416-.739 0-1.07.73-1.03-18.164-1.03-15.384 0-17.379.033-17.748.292-.517.362-.533.903-.042 1.394.369.369.624.374 17.748.374 15.422 0 17.42-.032 17.79-.291z"/>
  <path fill="#999" d="M33.19 29.864c-.41-.198-.817-.89-.817-1.39 0-.492.878-1.2 1.49-1.2 1.26 0 1.82 1.64.826 2.421-.54.425-.889.464-1.498.17z"/>
  <path fill="#d45500" stroke="#d45500" stroke-width=".187" d="M17.205 49.628c-2.953-1.006-6.546-3.284-9.206-5.837-2.439-2.34-4.025-4.469-5.401-7.247C.639 32.593-.132 28.98.04 24.559.298 17.944 2.584 11.8 6.729 6.583c1.383-1.74 1.473-2.074.849-3.14-.55-.936-.609-1.603-.213-2.37.615-1.189-.217-1.14 19.1-1.14 18.962 0 18.2-.038 18.912.978.402.574.365 1.617-.083 2.351-.67 1.098-.522 1.655.9 3.398 2.862 3.508 5.173 8.287 6.24 12.905.563 2.433.696 7.636.259 10.082-1.39 7.779-6.63 14.86-13.738 18.565C35.527 50 36 49.935 26.434 49.924c-7.027-.007-8.523-.055-9.229-.296zm-.716-11.747c1.063-.552 2.512-1.31 3.22-1.685 1.45-.769 1.653-.787 4.518-.403 3.833.513 6.197.24 8.641-.995 3.33-1.683 7.296-5.697 7.146-7.231-.115-1.171-2.474-1.848-6.423-1.844-3.014.004-4.68.345-6.822 1.398-1.386.68-1.905 1.089-3.798 2.989-2.862 2.874-2.885 2.88-5.94 1.951-2.538-.772-3.997-1.054-4.345-.839-.483.299 1.275 2.277 2.646 2.98.258.131.496.262.529.29.033.027-.41.837-.983 1.799-1.106 1.852-1.3 2.594-.683 2.594.198 0 1.23-.452 2.294-1.004zm31.037-27.039c-.638-1.064-1.906-2.839-2.777-3.886-.428-.515-.922-1.336-1.097-1.826l-.318-.889H9.382l-.123.654c-.072.382-.62 1.306-1.32 2.222-1.184 1.553-2.906 4.112-2.906 4.32 0 .059 9.656.107 21.457.107h21.457zm-3.392-8.137c.288-.288.288-.947 0-1.236-.326-.325-35.18-.325-35.506 0-.288.29-.288.948 0 1.236.326.326 35.18.326 35.506 0z"/>
  <path fill="#d45500" stroke="#d45500" stroke-width=".187" d="M33.49 30.12c-.614-.188-1.117-.856-1.117-1.482 0-.776.705-1.55 1.41-1.55.627 0 1.587.938 1.587 1.551 0 .905-1.053 1.734-1.88 1.48z"/>
</svg>
