<svg xmlns="http://www.w3.org/2000/svg" xmlns:xlink="http://www.w3.org/1999/xlink" version="1.0" x="0px" y="0px" viewBox="0 0 100 125" enable-background="new 0 0 100 100" xml:space="preserve"><g><path d="M76.682,52.449c0,5.439-1.84,10.64-5.2,15.039c-3.04,4.08-7.36,7.281-12.24,9.041c-0.16,0.08-0.88,0.24-2,0.24   c-2.96,0-13.601,0-14.24,0c-1.2,0-1.84-0.16-2-0.24c-4.8-1.76-9.12-4.961-12.24-9.041c-3.36-4.399-5.12-9.6-5.12-15.039   c0-9.121,4-15.841,7.6-20.081c0.48-0.56,0.64-1.36,0.16-1.84c-0.4-0.4-0.64-0.96-0.64-1.6c0-1.2,0.96-2.08,2.08-2.08h34.401   c1.2,0,2.08,0.88,2.08,2.08c0,0.64-0.32,1.12-0.64,1.52c-0.48,0.72-0.16,1.44,0.319,2.08   C72.521,36.608,76.682,43.408,76.682,52.449z M71.642,38.448c-1.12-2-2.4-3.68-3.681-5.2c-0.479-0.64-0.88-1.36-0.8-2.16H32.92   c0.08,0.72-0.24,1.44-0.8,2.16c-1.2,1.52-2.48,3.2-3.6,5.2H71.642z M31.96,28.928c0,0.4,0.4,0.88,0.88,0.88h34.401   c0.4,0,0.88-0.4,0.88-0.88s-0.399-0.88-0.88-0.88H32.84C32.36,28.048,31.96,28.448,31.96,28.928z M63.722,54.049   c-0.561-1.44-7.681-2.32-12.001-0.721c-4.32,1.68-5.6,4.4-6.8,5.36c-1.12,0.88-1.92,1.04-3.68,0.4c-3.44-1.2-5.68-1.601-4.96-0.56   c1.2,2,3.28,2.879,3.28,2.879c-3.44,5.281-2.64,5.041,0.88,3.281c1.12-0.48,2.24-1.521,3.76-2.08c1.6-0.641,1.92,0,3.84,0.08   c1.92,0.159,4.08,0.799,7.52-0.561C58.681,61.009,64.361,55.889,63.722,54.049z M57.481,53.969c0.8,0,1.52,0.72,1.52,1.52   c0,0.801-0.72,1.521-1.52,1.521c-0.801,0-1.521-0.72-1.521-1.521C55.961,54.688,56.681,53.969,57.481,53.969z"/></g><text x="0" y="115" fill="#000000" font-size="5px" font-weight="bold" font-family="'Helvetica Neue', Helvetica, Arial-Unicode, Arial, Sans-serif">Created by John Caserta</text><text x="0" y="120" fill="#000000" font-size="5px" font-weight="bold" font-family="'Helvetica Neue', Helvetica, Arial-Unicode, Arial, Sans-serif">from the Noun Project</text></svg>