<svg xmlns="http://www.w3.org/2000/svg" viewBox="0 0 100 125">
  <path d="M15.746 8.831c15.294-3.739 14.568 18.352 2.448 18.352C8.23 27.182 5.24 11.397 15.746 8.831zm6.933 66.474c-1.983.557-6.205.732-8.158 0-2.908-4.521-1.783-11.361-3.669-16.722-.636-1.806-2.586-3.478-3.262-5.304-1.786-4.806-2.233-16.32 0-20.389 3.081-5.617 19.694-4.981 22.021.408 1.57 3.634 1.224 12.568.407 17.537-.483 2.952-2.712 4.608-3.669 6.929-2.593 6.308-.9 13.111-3.67 17.541zM78.958 8.831c15.295-3.739 14.565 18.352 2.446 18.352-9.957-.001-12.954-15.786-2.446-18.352zm6.935 66.474c-1.981.557-6.203.732-8.16 0-2.903-4.521-1.778-11.361-3.664-16.722-.637-1.806-2.588-3.478-3.264-5.304-1.787-4.806-2.234-16.32 0-20.389 3.079-5.617 19.695-4.981 22.021.408 1.565 3.634 1.224 12.568.409 17.537-.486 2.952-2.715 4.608-3.672 6.929-2.597 6.308-.901 13.111-3.67 17.541zM37.514 60.061h24.464V75.6H37.514zm0-17.219h24.464V58.38H37.514zm0-17.219H61.98v15.538H37.514zm0-17.219h24.464v15.538H37.514z"/>
  <text y="115" font-family="'Helvetica Neue', Helvetica, Arial-Unicode, Arial, Sans-serif" font-size="5" font-weight="bold">
    Created by Jenn_3D
  </text>
  <text y="120" font-family="'Helvetica Neue', Helvetica, Arial-Unicode, Arial, Sans-serif" font-size="5" font-weight="bold">
    from the Noun Project
  </text>
</svg>
