<svg xmlns="http://www.w3.org/2000/svg" xmlns:xlink="http://www.w3.org/1999/xlink" version="1.1" x="0px" y="0px" viewBox="0 0 100 125" enable-background="new 0 0 100 100" xml:space="preserve"><g><path d="M15.746,8.831c15.294-3.739,14.568,18.352,2.448,18.352C8.23,27.182,5.24,11.397,15.746,8.831z"/><path d="M22.679,75.305c-1.983,0.557-6.205,0.732-8.158,0c-2.908-4.521-1.783-11.361-3.669-16.722   c-0.636-1.806-2.586-3.478-3.262-5.304c-1.786-4.806-2.233-16.32,0-20.389c3.081-5.617,19.694-4.981,22.021,0.408   c1.57,3.634,1.224,12.568,0.407,17.537c-0.483,2.952-2.712,4.608-3.669,6.929C23.756,64.072,25.449,70.875,22.679,75.305z"/></g><g><path d="M78.958,8.831c15.295-3.739,14.565,18.352,2.446,18.352C71.447,27.182,68.45,11.397,78.958,8.831z"/><path d="M85.893,75.305c-1.981,0.557-6.203,0.732-8.16,0c-2.903-4.521-1.778-11.361-3.664-16.722   c-0.637-1.806-2.588-3.478-3.264-5.304c-1.787-4.806-2.234-16.32,0-20.389c3.079-5.617,19.695-4.981,22.021,0.408   c1.565,3.634,1.224,12.568,0.409,17.537c-0.486,2.952-2.715,4.608-3.672,6.929C86.966,64.072,88.662,70.875,85.893,75.305z"/></g><rect x="37.514" y="60.061" width="24.464" height="15.539"/><rect x="37.514" y="42.842" width="24.464" height="15.538"/><rect x="37.514" y="25.623" width="24.466" height="15.538"/><rect x="37.514" y="8.404" width="24.464" height="15.538"/><text x="0" y="115" fill="#000000" font-size="5px" font-weight="bold" font-family="'Helvetica Neue', Helvetica, Arial-Unicode, Arial, Sans-serif">Created by Jenn_3D</text><text x="0" y="120" fill="#000000" font-size="5px" font-weight="bold" font-family="'Helvetica Neue', Helvetica, Arial-Unicode, Arial, Sans-serif">from the Noun Project</text></svg>